<svg xmlns="http://www.w3.org/2000/svg" viewBox="0 0 109.6 80.9" width="1em">
	<g>
		<path d="M84.1,22.2l5-8.7,2.7-4.6L86.8.2V0H60.1l5,8.7,5,8.7,2.8,4.8H84.1" fill="currentColor" />
		<path
			d="M29,80.6l5-8.7,5-8.7,5-8.7,5-8.7,5-8.7,5-8.7L62.7,22l-5-8.7-5-8.7L49.9.1H7.7l-5,8.7L0,13.4l5,8.7v.2h32l-5,8.7-5,8.7-5,8.7-5,8.7-5,8.7L8.5,72l5,8.7v.2H29"
			fill="currentColor"
		/>
		<path
			d="M70.8,80.6H86.1l5-8.7,5-8.7,5-8.7,5-8.7,3.5-6-5-8.7v-.2H89.2l-5,8.7-5,8.7-.7,1.3-5-8.7-5-8.7-.7-1.3-5,8.7-5,8.7L55,53.1l5,8.7,5,8.7,5,8.7.8,1.4"
			fill="currentColor"
		/>
	</g>
</svg>
