<?xml version="1.0" encoding="utf-8"?>
<!-- Generator: Adobe Illustrator 24.1.2, SVG Export Plug-In . SVG Version: 6.00 Build 0)  -->
<svg version="1.1" id="Layer_1" xmlns="http://www.w3.org/2000/svg" xmlns:xlink="http://www.w3.org/1999/xlink" x="0px" y="0px"
	 viewBox="0 0 537.12 537.12" style="enable-background:new 0 0 537.12 537.12;" xml:space="preserve" >
<style type="text/css">
	.st0{fill-rule:evenodd;clip-rule:evenodd;fill:#fff;}
	.st1{fill-rule:evenodd;clip-rule:evenodd;fill:#fff;}
</style>
<path class="st0" d="M969.41,1009.97c17.51,19.19,121.17,187.73,137.27,207.2c19.9,10.68,52.68-7.32,52.68-7.32
	s54.22-179.78,53.4-183.8c0.01-13.61-39.79-28.39-52.96-24.15c-5.42,12.18-34.11,163.19-41.85,161.66
	c-7.8-1.53-104.97-143.87-110.05-150.83C1003.51,1008.49,972.85,1007.11,969.41,1009.97z"/>
<path class="st1" d="M944.86,1010.02c17.51,19.19,128.3,172.64,143.28,192.24c12.68,6.4,42-6,42-6s53.38-175.49,52.56-179.52
	c-0.7-7.93-34.48-19.25-43.2-17.04c-5.42,12.18-43.86,159.44-51.6,157.92c-7.8-1.53-102.68-141.59-107.76-148.56
	C975.63,1007.25,948.3,1007.15,944.86,1010.02z"/>
<path class="st0" d="M775.74,863.51c35.63-2.78,338.12-44.07,410.69-45.86c8.13,1.13,44.49,6.44,42.15,25.17
	c-17.85,16.1-238.55,102.75-271.9,127.32c0.89,15.31,25.57,197.07,35.71,243.8c-3.51,16.98-58.24-6.73-65.45-13.96
	c-6.98-16.66-0.82-226.05-1.29-245.95c0.93-9.26,161.16-87.71,182.45-95.58c-34.24,3.24-262.64,33.72-279.33,34.11
	C811.22,889.66,777.27,875.02,775.74,863.51z"/>
<path class="st1" d="M761.5,852.34c35.63-2.78,331.11-34.94,403.68-36.72c8.13,1.13,31.97,5.51,33.36,15.12
	c-6.09,5.62-240.25,101.91-273.6,126.48c0.89,15.31,27.06,199.99,37.2,246.72c-4.67,2.77-43.39-10.03-49.44-15.12
	c-6.98-16.66-16.58-218.66-17.04-238.56c0.93-9.26,196.15-103.49,217.44-111.36c-34.24,3.24-293.15,36.56-309.84,36.96
	C785.97,870.41,757.39,856.7,761.5,852.34z"/>
</svg>
